<svg width="32" height="32" viewBox="0 0 32 32" fill="none" xmlns="http://www.w3.org/2000/svg">
<g clip-path="url(#clip0_2455_2640)">
<path d="M31.4275 11.4384C31.2664 10.6282 31.0672 9.81469 30.8386 9.02525C30.7921 8.87328 30.6892 8.74486 30.551 8.66633C30.4129 8.58781 30.2499 8.56513 30.0955 8.60295C29.7498 8.68733 29.3863 8.66082 29.0565 8.52719C28.7267 8.39355 28.4473 8.15955 28.2578 7.85831C28.213 7.78721 28.1546 7.72564 28.0859 7.67714C28.0173 7.62863 27.9398 7.59414 27.8578 7.57565C27.7792 7.55831 27.698 7.55685 27.6189 7.57136C27.5398 7.58587 27.4643 7.61605 27.397 7.66013C27.0079 7.9164 26.5652 8.08001 26.1029 8.13838C25.6406 8.19676 25.1711 8.14834 24.7305 7.99685C24.2899 7.84536 23.8898 7.59483 23.5612 7.26454C23.2325 6.93425 22.984 6.53298 22.8347 6.0916C22.784 5.94006 22.6769 5.81384 22.5357 5.73908C22.3945 5.66432 22.2299 5.64675 22.0761 5.69C21.8121 5.75677 21.5412 5.79257 21.2689 5.79666C20.6023 5.79666 18.8146 5.07618 18.3764 3.67997C18.3031 3.43866 18.2674 3.1875 18.2707 2.93533C18.2814 2.68253 18.3359 2.4335 18.4318 2.19933C18.4612 2.12464 18.4755 2.04488 18.474 1.96463C18.4725 1.88438 18.4551 1.80522 18.4229 1.7317C18.3907 1.65819 18.3442 1.59176 18.2863 1.53624C18.2283 1.48072 18.1599 1.4372 18.0851 1.40819C17.8868 1.32858 17.7058 1.21154 17.5518 1.06344C17.3704 0.884378 17.2324 0.666239 17.1482 0.425682C17.1073 0.309929 17.0327 0.209115 16.9338 0.136303C16.835 0.0634914 16.7166 0.0220361 16.5939 0.0173087C16.4552 0.0104287 16.2821 0.00178868 16.109 0.00178868C11.2782 -0.0602379 7.07962 1.49277 4.27884 4.37128C2.22467 6.48109 1.3707 8.81122 1.04852 9.68882C0.509608 11.1951 0.182103 12.7689 0.075348 14.3651C-0.0768031 16.1395 0.00472917 17.9261 0.317853 19.6792C0.647937 21.45 1.20083 23.1718 1.96334 24.8037C2.01528 24.9157 3.26759 27.5702 4.97889 28.7492C5.27132 28.9477 5.58724 29.1093 5.91942 29.2301C6.16929 29.3154 6.42775 29.3732 6.69019 29.4025C7.85413 29.5438 8.64218 29.0457 9.33854 28.6061C9.81854 28.3028 10.2738 28.0166 10.8265 27.9166C11.7532 27.765 12.3679 28.2614 13.0783 28.8267C13.7886 29.3921 14.6163 30.0574 15.8496 29.9713C16.9183 29.8954 17.4726 29.318 17.9593 28.8078C18.3923 28.3579 18.7993 27.9322 19.5441 27.8236C21.0321 27.6049 22.3328 28.8578 23.5937 30.0643C24.633 31.0554 25.6097 32 26.6301 32C26.8067 32.0003 26.9822 31.9718 27.1497 31.9155C27.9657 31.6449 28.4574 30.7469 29.4343 28.9611L29.4793 28.8801C29.9296 28.0549 30.3013 27.1893 30.5896 26.2946C31.8177 22.5784 31.9857 18.924 31.9995 17.5263C32.0198 15.4827 31.8281 13.4424 31.4275 11.4384ZM24.6412 27.4081C23.8028 26.386 22.7585 25.1122 20.9553 24.9019C20.7828 24.8821 20.6093 24.8723 20.4357 24.8726C20.2087 24.8731 19.9819 24.888 19.7567 24.9174C18.4127 25.0898 17.6592 25.7362 17.0547 26.2533C16.5575 26.679 16.1661 27.0134 15.5789 27.0533C14.8982 27.0981 14.4652 26.7085 13.9179 26.2207C13.3341 25.7034 12.6708 25.1038 11.564 24.9935C10.5594 24.8935 9.51321 25.2297 8.46703 25.9812C8.11251 26.2058 7.71149 26.3467 7.2944 26.3931C7.03732 26.4003 6.78133 26.357 6.54096 26.2655C6.49062 26.2441 6.44148 26.22 6.39376 26.1932C6.18043 26.0641 5.99208 25.8977 5.83777 25.7019C5.34758 25.1193 1.11246 19.7949 2.90882 12.3883L2.93656 12.2729C3.27255 10.8819 3.9758 7.98439 6.46997 5.63821C8.40373 3.81646 10.8862 2.68611 13.5299 2.42355L13.6165 2.41491C14.3093 2.34941 15.1754 2.26669 15.5218 2.80957C15.6549 3.02305 15.7372 3.26422 15.7625 3.51453C15.7781 3.59554 15.7937 3.6869 15.8162 3.79549C15.9442 4.45736 16.3705 6.08797 17.5483 6.92738C18.2654 7.44471 19.2267 7.62893 20.4426 7.8685C20.5847 7.89607 20.6418 7.90471 20.6764 7.90989L20.7404 7.9237C21.4039 8.09607 21.6791 8.52007 21.9997 9.01303C22.2664 9.42498 22.5678 9.89213 23.129 10.2299C24.0677 10.7953 25.5539 10.9194 26.6555 10.5109L26.7629 10.4713C26.9626 10.376 27.1828 10.3316 27.4038 10.342C28.0135 10.3937 28.4776 11.2762 28.6318 11.5658C28.9104 12.1129 29.1221 12.6917 29.2623 13.2895C29.5174 14.3335 29.6653 15.4008 29.704 16.4748V16.6058C29.704 16.7385 29.7178 16.8626 29.7126 16.9816C29.6696 18.6173 29.515 20.2482 29.2502 21.863C28.7062 24.9397 27.5977 28.5681 26.2658 28.6681C25.7272 28.7267 25.2231 28.1114 24.6412 27.4081Z" fill="white"/>
<path d="M7.25285 11.9641C6.06288 11.9641 5.12934 13.5912 5.12934 15.6665C5.12934 17.7418 6.06267 19.369 7.25285 19.369C8.44303 19.369 9.37636 17.7418 9.37636 15.6665C9.37636 13.5912 8.44452 11.9641 7.25285 11.9641Z" fill="white"/>
<path d="M19.9646 11.9641C18.7744 11.9641 17.8411 13.5912 17.8411 15.6665C17.8411 17.7418 18.7744 19.369 19.9646 19.369C21.1547 19.369 22.0881 17.7418 22.0881 15.6665C22.0881 13.5912 21.1562 11.9641 19.9646 11.9641Z" fill="white"/>
</g>
<defs>
<clipPath id="clip0_2455_2640">
<rect width="32" height="32" fill="white"/>
</clipPath>
</defs>
</svg>
