<svg width="18" height="18" viewBox="0 0 18 18" fill="none" xmlns="http://www.w3.org/2000/svg">
<g clip-path="url(#clip0_7656_107)">
<path d="M13.6794 15.2759C13.3794 14.88 13.1943 14.4091 13.1443 13.9149C13.0839 13.1687 13.3863 12.4213 14.0423 11.6925C14.1422 10.917 13.8975 7.93077 13.8975 7.93077H2.49091C2.49091 7.93077 2.6058 14.581 2.49091 14.4403C1.11077 12.733 0.457397 10.5514 0.671853 8.36649C0.886309 6.18158 1.9514 4.16866 3.63716 2.76225C5.32293 1.35583 7.49416 0.668807 9.68212 0.849409C11.8701 1.03001 13.8993 2.06376 15.3316 3.72755C18.3125 7.18833 17.4563 12.9343 14.0423 15.9684C13.968 16.0414 13.8143 15.4614 13.6794 15.2759Z" fill="#EECFFC"/>
<path d="M2.48438 7.22681V13.2888L4.24895 15.7693L5.11863 15.9225L6.48267 15.5299L8.6225 16.2303L10.6874 15.5299L13.3273 17.2022L14.197 15.7698C14.197 15.7698 11.9974 14.005 14.0946 11.6774C14.197 10.8847 14.0086 7.76266 14.0086 7.76266L2.48438 7.22681Z" fill="white"/>
<path d="M12.0262 17.0593C11.501 16.5466 10.934 16.0352 10.2772 16.1367C9.52269 16.247 9.48975 17.0331 8.67962 17.0914C8.47512 17.0922 8.27256 17.0516 8.08419 16.972C7.89581 16.8924 7.72552 16.7754 7.5836 16.6282C7.2605 16.3634 6.95341 16.0978 6.48733 16.1756C5.84979 16.2841 5.51494 16.9341 4.71873 16.8339C4.61173 16.8221 4.50664 16.7969 4.40597 16.7588C4.26961 16.71 4.14053 16.6429 4.02228 16.5593C3.48743 16.0954 3.05786 15.5225 2.76235 14.8791C2.72539 14.9453 2.67274 15.0015 2.60902 15.0427C2.5453 15.0839 2.47245 15.1088 2.39686 15.1153C2.32097 15.1219 2.24463 15.1094 2.17482 15.0789C2.10501 15.0484 2.04395 15.0009 1.99722 14.9408C-1.08991 11.0412 -0.538165 5.33739 3.23679 2.12771C7.01175 -1.08197 12.6134 -0.608005 15.8205 3.18782C19.027 6.98671 18.6528 12.7072 14.9794 16.0374C14.8992 16.1167 14.8129 16.1895 14.7211 16.255C14.6605 16.3872 14.5935 16.5213 14.5187 16.6674C14.0947 17.4608 13.8862 17.8593 13.5677 17.968C13.5071 17.9881 13.4439 17.9987 13.3801 17.9994C12.946 18.0165 12.5055 17.5562 12.0262 17.0593ZM11.573 15.3403C12.1355 15.7395 13.2321 16.7446 13.2321 16.7446C13.4404 16.7085 13.6975 16.4262 13.6543 16.3915C13.167 15.9973 12.7926 15.0429 12.7926 14.0388C12.7926 12.8762 13.177 11.9707 13.7556 11.6557V8.33278C13.7557 8.30162 13.7515 8.27057 13.7432 8.24053H2.84105C2.83353 8.27076 2.82902 8.30167 2.82758 8.33278V12.765C3.18195 13.6931 3.66015 14.5692 4.2492 15.3693C4.32426 15.4666 4.4164 15.5495 4.52111 15.6139C4.5452 15.6278 4.57024 15.64 4.59605 15.6505C4.71428 15.7014 4.84241 15.7253 4.97105 15.7203C5.17386 15.6979 5.36862 15.6283 5.53984 15.5173C5.89773 15.2233 6.35229 15.0731 6.8149 15.0961C7.69358 15.1866 7.88526 16.0612 8.58152 16.0139C9.22473 15.9687 9.5066 15.3763 10.278 15.1158C10.6876 15.0104 11.0953 15.0105 11.5735 15.3403H11.573ZM14.1408 7.31244C14.3095 7.4243 14.4473 7.5767 14.5418 7.75564C14.6362 7.93458 14.6843 8.13433 14.6815 8.33665V12.0123C14.682 12.0739 14.6704 12.135 14.6473 12.1921C14.6243 12.2492 14.5902 12.3012 14.547 12.3451C14.5039 12.3891 14.4525 12.4241 14.3958 12.4481C14.3391 12.4722 14.2782 12.4848 14.2167 12.4853C14.2009 12.4853 14.0833 12.5442 13.9543 12.8142C13.7906 13.2022 13.7107 13.6204 13.7199 14.0414C13.6841 14.5661 13.8242 15.0877 14.1181 15.5238C14.2104 15.4809 14.2923 15.4182 14.3578 15.3403H14.3556C17.5139 12.4906 17.989 7.64159 15.4457 4.21246C12.9025 0.782125 8.19835 -0.0723872 4.64979 2.2507C1.10124 4.57378 -0.0955703 9.29111 1.90307 13.0778V8.33453C1.90207 8.30307 1.90303 8.27155 1.90594 8.24022L1.53573 8.24153C1.53573 6.55278 2.64745 5.18736 6.2629 5.18736C9.17877 5.20479 12.8388 6.08548 14.1409 7.30827L14.1408 7.31244ZM9.6718 10.8298C9.6718 9.97609 10.0333 9.29341 10.4837 9.29341C10.9341 9.29341 11.2944 9.97883 11.2944 10.8298C11.2944 11.6787 10.9329 12.3645 10.4837 12.3645C10.0345 12.3645 9.67046 11.7052 9.67046 10.8258L9.6718 10.8298ZM4.13922 10.8298C4.13922 9.97609 4.50088 9.29341 4.9512 9.29341C5.40152 9.29341 5.76184 9.97883 5.76184 10.8298C5.76184 11.6787 5.39916 12.3645 4.9512 12.3645C4.50324 12.3645 4.13769 11.7052 4.13769 10.8258L4.13922 10.8298Z" fill="#7B1FA2"/>
</g>
<defs>
<clipPath id="clip0_7656_107">
<rect width="18" height="18.0006" fill="white" transform="translate(0 -0.000732422)"/>
</clipPath>
</defs>
</svg>
